<svg width="1889" height="891" viewBox="0 0 1889 891" fill="none" xmlns="http://www.w3.org/2000/svg">
<path fill-rule="evenodd" clip-rule="evenodd" d="M12.8024 427.314L195.953 427.881C353.427 428.454 453.276 387.376 453.276 303.501C453.276 239.027 400.787 205.939 308.922 191.1C378.532 175.699 419.042 148.308 419.042 100.954C419.042 30.2043 327.183 -0.0352725 181.688 0.537645L12.8024 1.10535C1.39095 1.10535 -3.73926 18.7929 5.95866 25.0689C8.81282 27.3501 12.8024 29.6314 17.3701 31.9179C26.5003 37.0533 32.7764 46.7512 32.7764 56.4491V371.397C32.7764 381.668 26.5003 391.366 17.3701 395.933C12.8024 398.215 8.81282 400.496 5.95866 402.777C-3.73926 409.626 1.39095 427.314 12.8024 427.314ZM172.563 375.965V228.756C172.563 218.491 179.407 211.069 189.677 211.069C274.12 211.069 313.49 240.168 313.49 301.788C313.49 363.98 275.261 393.079 189.677 393.079C179.407 393.079 172.563 386.23 172.563 375.965ZM172.563 52.4543C172.563 41.6158 179.407 34.7668 189.677 34.7668C251.87 35.3397 279.256 57.5897 279.256 106.09C279.256 153.444 250.729 176.267 189.677 176.84C179.407 176.84 172.563 169.991 172.563 159.72V52.4543ZM450.383 201.944L450.852 201.961C465.893 202.513 470.924 202.698 470.924 220.772V346.866C470.924 407.345 502.872 435.871 575.909 434.73C616.414 433.59 656.357 415.329 676.893 381.668C681.461 417.616 715.695 435.303 759.055 435.871C846.352 437.012 854.909 393.079 841.216 389.657C837.524 388.804 833.972 390.922 830.281 393.122C826.557 395.342 822.69 397.647 818.393 397.074C808.122 395.933 804.701 385.663 804.701 367.975C804.701 358.115 804.807 339.098 804.929 317.502L804.929 317.463C805.089 289.077 805.273 256.243 805.273 233.892V211.642C805.273 162.574 789.294 154.585 744.794 154.585C712.841 154.585 675.185 162.001 652.93 175.126C640.95 181.402 644.372 200.803 656.924 201.944L657.394 201.961C672.435 202.513 677.466 202.698 677.466 220.772V235.032L676.893 316.053C673.471 344.012 655.784 371.97 631.82 372.538C599.872 373.111 598.159 344.585 598.727 313.772L599.299 211.642C599.299 162.574 582.753 154.585 538.247 154.585C506.299 154.585 468.643 162.001 446.388 175.126C434.409 181.402 437.831 200.803 450.383 201.944ZM974.12 436.444C891.958 443.288 833.766 386.803 832.625 294.944C830.912 204.225 890.818 146.027 976.974 153.444C992.948 155.157 1007.21 159.152 1019.77 164.855V68.4335C1019.77 50.3392 1015.29 50.1746 1000.21 49.6207L999.797 49.6053C987.245 48.4595 983.823 29.0637 995.235 22.7876C1017.48 9.66264 1055.71 2.24597 1087.66 2.24597C1131.59 2.24597 1148.14 10.2356 1148.14 59.3033V83.2668C1148.14 105.618 1147.96 187.002 1147.8 257.361C1147.68 310.931 1147.57 358.11 1147.57 367.975C1147.57 385.663 1150.99 395.933 1161.27 397.074C1165.56 397.647 1169.43 395.342 1173.15 393.122C1176.84 390.922 1180.4 388.804 1184.09 389.657C1197.78 393.079 1189.22 437.012 1101.93 435.871C1075.68 435.303 1052.86 429.027 1038.03 415.902C1020.34 426.741 999.224 434.157 974.12 436.444ZM1175.5 294.944C1176.64 386.803 1234.83 443.288 1316.99 436.444C1342.1 434.157 1363.21 426.741 1380.9 415.902C1395.73 429.027 1418.56 435.303 1444.8 435.871C1532.1 437.012 1540.66 393.079 1526.96 389.657C1523.27 388.804 1519.72 390.922 1516.03 393.122C1512.3 395.342 1508.44 397.647 1504.14 397.074C1493.87 395.933 1490.45 385.663 1490.45 367.975C1490.45 358.144 1490.55 311.26 1490.67 257.921L1490.67 257.361C1490.83 187.002 1491.02 105.618 1491.02 83.2668V59.3033C1491.02 10.2356 1474.47 2.24597 1430.54 2.24597C1398.59 2.24597 1360.36 9.66264 1338.11 22.7876C1326.7 29.0637 1330.12 48.4595 1342.67 49.6053L1343.09 49.6207C1358.16 50.1746 1362.64 50.3392 1362.64 68.4335V164.855C1350.09 159.152 1335.82 155.157 1319.85 153.444C1233.69 146.027 1173.79 204.225 1175.5 294.944ZM1314.71 185.965C1340.39 181.402 1348.37 200.803 1362.64 284.105C1376.33 367.402 1376.91 393.652 1350.66 398.215C1324.98 402.777 1316.43 377.673 1302.73 294.371C1288.47 211.069 1289.04 190.532 1314.71 185.965ZM1530.93 192.814C1525.79 190.532 1521.22 188.251 1517.23 185.397C1507.53 179.121 1513.24 161.433 1525.22 161.433H1701.52C1712.93 161.433 1718.07 179.121 1708.94 185.397C1706.82 187.092 1704.7 188.473 1702.35 190.007C1701.53 190.537 1700.69 191.087 1699.81 191.673C1691.82 196.808 1688.4 204.793 1690.68 213.355C1693.35 219.635 1696.05 225.954 1698.75 232.272L1698.75 232.273C1720.83 283.934 1742.84 335.452 1749.45 363.413L1809.93 223.053H1809.36L1812.78 215.637C1816.2 206.506 1813.35 197.376 1804.22 191.673C1803.36 191.098 1802.53 190.558 1801.73 190.037L1801.73 190.033C1799.35 188.489 1797.23 187.101 1795.09 185.397C1785.4 179.121 1790.53 161.433 1802.51 161.433H1875.54C1887.53 161.433 1893.23 179.121 1883.53 185.397C1879.54 188.251 1876.11 190.532 1872.69 192.241C1864.13 197.376 1856.14 205.366 1852.15 213.355L1754.01 435.871C1718.07 518.032 1696.38 560.251 1619.36 561.397C1551.46 562.538 1507.53 522.027 1518.37 474.1C1523.5 450.704 1545.19 440.433 1566.87 440.433C1593.11 440.433 1619.93 455.272 1617.65 478.663C1614.8 511.756 1634.76 529.444 1646.18 528.303C1647.89 528.303 1650.17 527.73 1651.88 527.163C1694.48 510.738 1626.29 368.757 1569.38 250.276L1569.38 250.275L1569.38 250.274C1563.02 237.034 1556.8 224.087 1550.89 211.642C1545.76 203.652 1538.34 196.808 1530.93 192.814ZM288.707 544.873L288.708 544.872C301.442 523.797 314.561 502.087 366.327 502.087H383.442V825.592C382.874 835.863 377.166 845.566 367.468 850.128L367.467 850.129C363.473 852.41 359.478 854.691 356.056 856.972C346.926 863.821 352.062 881.509 363.473 881.509H539.775C551.76 881.509 557.463 863.821 547.765 856.972C544.343 854.691 540.916 852.41 537.494 850.696C528.937 844.993 523.228 835.295 523.228 825.592V502.087H539.775C592.276 502.087 605.473 524.417 618.091 545.768L618.092 545.769C619.735 548.549 621.368 551.313 623.077 554.008C629.353 563.139 637.911 567.701 645.9 567.701C656.739 567.701 665.301 559.712 662.447 543.738C660.107 527.367 655.852 508.693 652.507 494.009C651.772 490.782 651.08 487.747 650.463 484.972C647.614 474.701 639.056 468.425 628.786 468.425H277.322C267.051 468.425 258.489 474.701 256.207 484.972C252.213 500.373 246.51 523.769 243.655 543.738C240.801 559.712 249.364 567.701 260.202 567.701C268.192 567.701 276.749 563.139 283.025 554.008C284.99 551.025 286.844 547.957 288.705 544.876L288.706 544.875L288.706 544.874L288.707 544.873L288.707 544.873ZM756.551 889.498C704.63 889.498 665.26 862.68 660.697 819.889C652.708 736.014 743.426 713.764 806.192 713.764C826.729 713.764 844.416 716.045 854.687 719.472V700.071C854.687 656.706 846.13 636.17 821.025 635.597C792.859 635.047 788.214 651.602 782.253 672.842L782.234 672.909C782.122 673.308 782.01 673.709 781.897 674.111C781.817 674.395 781.736 674.681 781.656 674.967C777.661 689.8 757.692 697.79 737.723 697.79C713.76 697.79 689.223 686.946 690.937 665.269C693.218 630.462 746.854 606.498 827.869 607.071C915.739 607.071 984.775 638.451 984.775 720.613C984.203 759.973 984.203 798.198 984.203 821.022V821.029C984.203 838.717 987.63 848.988 997.328 850.128C1001.98 850.709 1005.88 848.332 1009.58 846.085C1013.14 843.917 1016.51 841.87 1020.15 842.712C1033.84 846.133 1025.29 890.066 938.562 888.925C896.338 888.357 861.536 871.811 855.26 838.144C837.572 871.811 797.63 889.498 756.551 889.498ZM828.442 743.436C810.755 743.436 790.213 751.42 786.791 786.795C784.51 814.753 797.062 836.436 822.166 835.295C848.411 834.722 853.546 809.618 854.119 779.951L854.687 748.566C850.692 746.857 839.854 743.436 828.442 743.436ZM1016.12 830.159C1037.24 879.795 1127.95 890.639 1163.9 890.639C1265.46 890.639 1317.95 854.691 1314.53 791.363C1311.91 736.523 1249.54 716.979 1197.18 700.571C1158.01 688.299 1124.45 677.782 1125.67 655.566C1126.24 640.732 1143.36 632.743 1164.47 634.456C1193.52 636.876 1206.04 652.62 1218.12 667.809C1228.81 681.257 1239.16 694.27 1260.32 697.217C1282 700.071 1300.26 685.805 1296.27 664.123C1291.13 631.602 1243.78 608.779 1163.33 605.357C1074.32 601.363 1017.26 636.738 1017.83 688.087C1018.17 742.248 1083.58 770.1 1136.73 792.733C1173.16 808.249 1203.83 821.312 1203.83 838.717C1203.83 855.264 1190.71 865.534 1161.04 860.967C1120.07 854.71 1106.87 832.506 1095.04 812.592C1085.29 796.184 1076.46 781.332 1053.78 778.238C1020.69 773.675 1003.57 801.628 1016.12 830.159ZM1331.62 505.472C1326.94 505.929 1322.17 506.396 1317.92 506.081C1305.37 505.508 1301.94 486.113 1313.93 479.264C1339.03 464.998 1382.4 455.873 1418.91 455.873C1464.55 455.873 1482.24 462.149 1482.24 513.498V702.352C1514.07 690.415 1532.03 670.023 1549.15 650.577C1571.32 625.411 1592.08 601.832 1639.71 600.222C1676.8 598.514 1716.17 620.191 1714.46 660.133C1713.89 685.805 1694.49 704.066 1671.67 701.784C1647.49 699.557 1637.68 687.93 1629.28 677.978C1622.62 670.079 1616.84 663.236 1605.49 662.982C1590.2 662.982 1578.63 674.12 1564.56 687.664C1556.57 695.361 1547.77 703.834 1537.02 711.482C1547.29 710.342 1556.41 709.769 1564.98 709.769C1616.32 709.769 1645.99 732.024 1665.39 789.649L1680.8 834.154C1684.22 844.993 1693.35 852.982 1702.48 853.55C1707.61 854.123 1712.18 854.691 1715.6 856.972C1725.3 863.821 1720.17 881.508 1708.18 881.508H1596.36C1579.24 881.508 1564.97 870.67 1558.7 854.123C1556 845.687 1552.5 835.855 1548.09 823.446L1548.08 823.441L1548.05 823.342C1545.01 814.793 1541.53 805.022 1537.58 793.644C1522.75 749.712 1505.06 744.003 1482.24 746.284V825.592C1482.24 835.295 1488.52 844.993 1497.08 850.696C1499.5 851.909 1501.64 853.407 1503.9 854.989L1503.9 854.989C1504.83 855.641 1505.78 856.306 1506.78 856.972C1517.05 863.821 1511.34 881.508 1499.36 881.508H1336.18C1324.77 881.508 1319.06 863.821 1328.76 856.972C1332.18 854.691 1336.18 852.411 1340.17 850.13L1340.17 850.128C1349.87 845.566 1355.58 835.863 1355.58 825.592V516.352C1355.58 503.127 1343.91 504.269 1331.62 505.472ZM970.39 387.78C1023.07 387.78 1065.78 345.072 1065.78 292.39C1065.78 239.708 1023.07 197 970.39 197C917.708 197 875 239.708 875 292.39C875 345.072 917.708 387.78 970.39 387.78Z" fill="white"/>
<path d="M951.662 278.153C951.829 278.822 951.98 279.496 952.115 280.171C952.25 280.846 952.371 281.52 952.473 282.194C952.574 282.866 952.66 283.536 952.729 284.199C952.797 284.865 952.847 285.521 952.881 286.172C952.915 286.822 952.932 287.46 952.93 288.089C952.928 288.718 952.911 289.334 952.873 289.933C952.836 290.535 952.783 291.12 952.712 291.69C952.642 292.257 952.554 292.805 952.449 293.336C952.344 293.865 952.222 294.374 952.085 294.861C951.945 295.347 951.792 295.809 951.622 296.247C951.452 296.686 951.267 297.097 951.067 297.483C950.87 297.869 950.655 298.226 950.427 298.556C950.198 298.885 949.958 299.185 949.705 299.454C949.452 299.723 949.187 299.962 948.909 300.171C948.632 300.38 948.344 300.556 948.046 300.7C947.75 300.844 947.441 300.955 947.126 301.033C946.811 301.112 946.487 301.159 946.157 301.17C945.827 301.184 945.49 301.164 945.147 301.109C944.804 301.055 944.457 300.968 944.108 300.849C943.758 300.73 943.405 300.579 943.048 300.395C942.692 300.211 942.335 299.997 941.979 299.749C941.621 299.502 941.266 299.225 940.909 298.918C940.553 298.611 940.201 298.275 939.85 297.912C939.501 297.546 939.154 297.154 938.813 296.736C938.471 296.317 938.135 295.874 937.808 295.406C937.477 294.936 937.156 294.445 936.84 293.931C936.525 293.419 936.221 292.883 935.924 292.329C935.627 291.775 935.342 291.204 935.067 290.613C934.792 290.023 934.528 289.42 934.276 288.8C934.025 288.182 933.787 287.55 933.561 286.909C933.334 286.266 933.124 285.615 932.926 284.955C932.729 284.296 932.546 283.63 932.379 282.96C932.212 282.289 932.06 281.615 931.925 280.94C931.79 280.265 931.67 279.591 931.568 278.919C931.467 278.245 931.381 277.577 931.312 276.911C931.244 276.248 931.193 275.59 931.159 274.939C931.126 274.291 931.108 273.651 931.11 273.022C931.112 272.393 931.13 271.78 931.167 271.178C931.204 270.576 931.258 269.991 931.33 269.423C931.399 268.854 931.487 268.306 931.592 267.775C931.697 267.246 931.819 266.736 931.956 266.252C932.096 265.764 932.248 265.302 932.419 264.864C932.589 264.425 932.773 264.014 932.973 263.628C933.172 263.244 933.386 262.885 933.614 262.555C933.842 262.226 934.083 261.926 934.336 261.657C934.589 261.388 934.854 261.149 935.131 260.94C935.409 260.733 935.697 260.557 935.995 260.411C936.291 260.269 936.6 260.156 936.915 260.078C937.229 259.999 937.555 259.954 937.883 259.941C938.215 259.929 938.551 259.949 938.894 260.001C939.237 260.056 939.583 260.143 939.933 260.262C940.283 260.381 940.636 260.532 940.992 260.716C941.349 260.9 941.706 261.116 942.061 261.362C942.419 261.609 942.775 261.886 943.131 262.193C943.487 262.5 943.839 262.836 944.191 263.201C944.54 263.565 944.887 263.957 945.228 264.375C945.57 264.794 945.905 265.237 946.233 265.707C946.563 266.175 946.885 266.666 947.2 267.18C947.516 267.694 947.819 268.228 948.116 268.782C948.413 269.336 948.699 269.91 948.973 270.498C949.249 271.088 949.513 271.693 949.764 272.311C950.016 272.931 950.254 273.561 950.481 274.204C950.707 274.845 950.917 275.496 951.114 276.156C951.312 276.815 951.494 277.481 951.662 278.153Z" fill="white"/>
<path d="M999.868 266.134C1000.04 266.803 1000.19 267.476 1000.32 268.152C1000.46 268.827 1000.58 269.501 1000.68 270.175C1000.78 270.846 1000.87 271.517 1000.93 272.18C1001 272.846 1001.05 273.502 1001.09 274.152C1001.12 274.803 1001.14 275.441 1001.14 276.07C1001.13 276.698 1001.12 277.314 1001.08 277.914C1001.04 278.516 1000.99 279.101 1000.92 279.671C1000.85 280.238 1000.76 280.786 1000.66 281.317C1000.55 281.846 1000.43 282.355 1000.29 282.842C1000.15 283.327 999.999 283.79 999.828 284.228C999.658 284.667 999.474 285.078 999.274 285.464C999.076 285.85 998.862 286.207 998.633 286.536C998.405 286.866 998.164 287.165 997.911 287.435C997.658 287.704 997.393 287.943 997.116 288.152C996.838 288.361 996.551 288.537 996.252 288.68C995.956 288.825 995.647 288.935 995.332 289.014C995.018 289.092 994.693 289.14 994.364 289.151C994.033 289.165 993.696 289.145 993.353 289.09C993.01 289.036 992.664 288.949 992.314 288.83C991.964 288.711 991.611 288.56 991.255 288.376C990.899 288.192 990.542 287.978 990.186 287.73C989.828 287.482 989.472 287.206 989.116 286.899C988.76 286.592 988.408 286.255 988.057 285.893C987.707 285.527 987.36 285.135 987.019 284.717C986.677 284.297 986.342 283.855 986.014 283.387C985.684 282.917 985.362 282.425 985.047 281.912C984.732 281.4 984.428 280.864 984.131 280.31C983.834 279.756 983.549 279.184 983.274 278.594C982.998 278.004 982.734 277.401 982.483 276.781C982.231 276.163 981.993 275.53 981.767 274.89C981.54 274.247 981.33 273.595 981.133 272.936C980.935 272.276 980.753 271.611 980.586 270.941C980.418 270.269 980.267 269.596 980.132 268.921C979.997 268.246 979.876 267.572 979.775 266.9C979.673 266.226 979.587 265.558 979.518 264.892C979.45 264.229 979.4 263.571 979.366 262.92C979.332 262.272 979.315 261.631 979.317 261.003C979.319 260.374 979.337 259.76 979.374 259.159C979.411 258.557 979.464 257.972 979.536 257.404C979.605 256.835 979.694 256.286 979.798 255.755C979.903 255.227 980.025 254.717 980.163 254.233C980.302 253.745 980.455 253.283 980.625 252.844C980.795 252.406 980.98 251.995 981.18 251.609C981.378 251.225 981.592 250.866 981.82 250.536C982.049 250.207 982.289 249.907 982.542 249.638C982.795 249.369 983.06 249.129 983.338 248.92C983.616 248.714 983.904 248.538 984.202 248.392C984.498 248.25 984.806 248.137 985.121 248.059C985.436 247.98 985.761 247.935 986.09 247.921C986.421 247.91 986.758 247.93 987.1 247.982C987.443 248.037 987.79 248.123 988.14 248.242C988.489 248.361 988.842 248.513 989.199 248.697C989.555 248.88 989.912 249.097 990.268 249.343C990.626 249.59 990.981 249.866 991.338 250.173C991.694 250.48 992.046 250.817 992.397 251.182C992.746 251.546 993.093 251.938 993.434 252.355C993.776 252.775 994.112 253.218 994.44 253.688C994.77 254.156 995.091 254.647 995.407 255.161C995.722 255.675 996.026 256.209 996.323 256.763C996.62 257.317 996.905 257.89 997.18 258.479C997.455 259.069 997.72 259.674 997.971 260.292C998.223 260.912 998.46 261.542 998.687 262.185C998.913 262.825 999.123 263.477 999.321 264.137C999.518 264.796 999.701 265.462 999.868 266.134Z" fill="white"/>
<path d="M1039.94 280.553L1024.13 278.886C1020.85 278.547 1017.92 280.923 1017.57 284.195C1017.23 287.473 1019.6 290.401 1022.87 290.747L1025.22 290.992C1026.03 316.597 1008.92 339.41 983.854 345.66C958.785 351.911 932.968 339.799 921.666 316.813L923.616 315.497C926.348 313.657 927.068 309.957 925.222 307.222C923.38 304.493 919.677 303.778 916.946 305.614L903.768 314.508C901.036 316.348 900.317 320.055 902.159 322.784C903.599 324.916 906.18 325.828 908.543 325.239C909.202 325.075 909.839 324.797 910.432 324.398L913.366 322.42C927.042 348.795 957.078 362.577 986.258 355.302C1015.44 348.026 1035.49 321.757 1035.17 292.043L1038.69 292.412C1039.4 292.487 1040.1 292.434 1040.75 292.27C1043.11 291.682 1044.97 289.663 1045.24 287.103C1045.59 283.83 1043.21 280.898 1039.94 280.553Z" fill="white"/>
</svg>
